<?xml version="1.0" encoding="utf-8"?>
<!-- Generator: Adobe Illustrator 23.0.3, SVG Export Plug-In . SVG Version: 6.00 Build 0)  -->
<svg version="1.1" id="Layer_1" xmlns="http://www.w3.org/2000/svg" xmlns:xlink="http://www.w3.org/1999/xlink" x="0px" y="0px"
	 viewBox="0 0 609 802" style="enable-background:new 0 0 609 802;" xml:space="preserve">
<style type="text/css">
	.st0{fill-rule:evenodd;clip-rule:evenodd;fill:#FFFCCF;}
</style>
<path class="st0" d="M74.8,293.7c-1.6,0.1-2.2-0.8-3-1.5c-45.9-68-28.5-159.8,37.8-205.6c1.9-0.8,2.9-1.4,3-1.5
	c69.1-44.9,160.5-25.5,205.6,42.3c-0.1,1.5,0.5,2.4,1.5,3c21.6,35.9,41.9,69.5,60.5,102.8l-46.9,54.4l69.5-15.1
	c35.7,61,65.1,116.6,89.2,164.8l-28.7,49.9l49.9-3c58.2,137,65.4,219.1,21.2,247.9c-52.2,33.9-142.7-26.8-270.6-182.9l39.3-51.4
	l-68,19.6C192,461.7,144,396.4,93,320.9l30.2-39.3L74.8,293.7z"/>
</svg>
