<?xml version="1.0" encoding="utf-8"?>
<!-- Generator: Adobe Illustrator 23.0.3, SVG Export Plug-In . SVG Version: 6.00 Build 0)  -->
<svg version="1.1" id="Layer_1" xmlns="http://www.w3.org/2000/svg" xmlns:xlink="http://www.w3.org/1999/xlink" x="0px" y="0px"
	 viewBox="0 0 273 800" style="enable-background:new 0 0 273 800;" xml:space="preserve">
<style type="text/css">
	.st0{fill:#BDEDDA;}
</style>
<path class="st0" d="M241.3,157.3c4.2,45.1-1,93.9-14.5,149.9c-4-26.7-14.9-46.3-32.9-58.9c-32.8-22.9-70.4-25.7-84.1-6.1
	c-13.7,19.6,1.8,54,34.5,77c20.4,14.3,46.2,17,77.5,8.2c-8.5,31.9-18.9,64.2-36.7,115.8c-0.2,0.6-0.4,1.3-0.7,1.9
	c-3.6-27.9-14.7-48.4-33.3-61.4c-32.8-22.9-70.4-25.7-84.1-6.1c-13.7,19.6,1.8,54,34.5,77c20.3,14.2,45.9,17,76.8,8.3
	c-21,61.1-29.8,88.5-36.9,117.4c-4.8-23.1-15.3-40.3-31.7-51.8c-32.8-22.9-70.4-25.7-84.1-6.1c-13.7,19.6,1.8,54,34.5,77
	c19.9,13.9,44.8,16.9,74.9,8.8c-10.3,50.4-11.2,92.3-1.1,129.3c0.7,2.6,3.4,4.2,6,3.5c2.6-0.7,4.2-3.4,3.5-6
	c-10.2-37.6-8.6-81,3.3-134.4c8.9-40,17.1-65.4,47.7-154.3c20.4-59.2,31.2-93.2,40.5-130.4c16.9-67.6,22.2-125.2,14-178.6
	c-0.2-1.3-0.8-2.3-1.8-3.1c-4.3-25.4-15.1-44.1-32.5-56.3C181.6,55,144,52.3,130.3,71.9c-13.7,19.6,1.8,54,34.5,77
	C185,163,210.5,165.8,241.3,157.3L241.3,157.3z"/>
</svg>
