<?xml version="1.0" encoding="utf-8"?>
<!-- Generator: Adobe Illustrator 23.0.3, SVG Export Plug-In . SVG Version: 6.00 Build 0)  -->
<svg version="1.1" id="Layer_1" xmlns="http://www.w3.org/2000/svg" xmlns:xlink="http://www.w3.org/1999/xlink" x="0px" y="0px"
	 viewBox="0 0 557 800" style="enable-background:new 0 0 557 800;" xml:space="preserve">
<style type="text/css">
	.st0{fill-rule:evenodd;clip-rule:evenodd;fill:#BDEDDA;}
</style>
<path class="st0" d="M324.9,740c48.1,0,204.4-156.4,189.4-258.1c-23-162.8-149.4,88.1-194.4,53.6
	c-44.5-34.3,183.9-179.8,117.3-259.8c-67.2-79.5-191.6,231.9-145.8,63.7c45-166.2,28.6-293-58.7-278.2
	c-87.7,14.3-86.2,190.5-13.4,291.6C291.6,453,92,291.4,60,378c-34.2,88.5,174.7,115.7,154.2,176c-21.8,59-104.6-67.5-164.3-13.4
	C-10.2,593.7,276.5,740,324.9,740z"/>
</svg>
