<?xml version="1.0" standalone="no"?>
<!DOCTYPE svg PUBLIC "-//W3C//DTD SVG 20010904//EN"
 "http://www.w3.org/TR/2001/REC-SVG-20010904/DTD/svg10.dtd">
<svg version="1.0" xmlns="http://www.w3.org/2000/svg"
 width="700.000000pt" height="700.000000pt" viewBox="0 0 700.000000 700.000000"
 preserveAspectRatio="xMidYMid meet">
<metadata>
Created by potrace 1.11, written by Peter Selinger 2001-2013
</metadata>
<g transform="translate(0.000000,700.000000) scale(0.100000,-0.100000)"
fill="#000000" stroke="none">
<path d="M693 6339 c-133 -25 -207 -129 -238 -334 -21 -143 -21 -493 0 -725 3
-30 8 -82 11 -115 2 -33 7 -80 11 -105 3 -25 7 -58 9 -75 4 -52 13 -119 18
-150 2 -16 8 -52 11 -80 10 -68 11 -77 29 -180 8 -49 20 -117 25 -150 19 -108
62 -307 102 -475 22 -91 42 -174 44 -184 29 -136 208 -693 264 -821 5 -11 21
-51 36 -90 16 -38 41 -98 56 -133 16 -35 29 -66 29 -69 0 -14 186 -374 246
-474 241 -407 520 -729 829 -957 39 -28 75 -55 80 -60 10 -8 234 -144 270
-164 263 -147 640 -270 950 -312 194 -27 576 -27 705 -1 14 3 43 7 65 10 72 9
248 55 355 92 215 74 389 167 565 302 111 85 273 258 340 363 14 22 14 29 4
32 -8 2 -59 16 -114 31 -245 66 -592 188 -850 297 -321 137 -732 351 -980 512
-27 18 -97 64 -155 101 -101 66 -363 252 -425 302 -16 13 -39 31 -50 39 -93
69 -426 344 -465 384 -8 8 -53 49 -100 90 -188 165 -222 211 -222 300 1 102
67 187 163 210 93 22 151 1 249 -90 103 -96 204 -187 294 -263 27 -23 54 -47
60 -52 29 -27 184 -152 301 -242 217 -167 576 -411 745 -505 25 -14 63 -36 85
-48 471 -272 1027 -499 1568 -640 98 -25 109 -27 113 -12 3 10 10 27 14 39 11
27 57 197 65 239 5 27 9 51 19 101 29 142 29 548 0 696 -64 335 -148 572 -297
832 -38 67 -146 234 -157 245 -3 3 -19 23 -35 46 -152 209 -439 484 -690 660
-55 38 -107 74 -117 79 -9 6 -63 38 -120 71 -179 107 -342 181 -552 253 -106
37 -241 77 -284 86 -9 2 -53 12 -97 23 -44 11 -105 25 -135 31 -30 6 -66 14
-80 16 -14 3 -41 8 -60 11 -19 4 -39 7 -45 9 -16 3 -77 15 -110 20 -180 30
-459 79 -540 95 -55 11 -110 22 -123 25 -13 2 -31 6 -40 9 -9 3 -28 7 -42 10
-51 8 -222 57 -327 92 -371 124 -675 310 -956 584 -154 151 -225 188 -324 169z"/>
<path d="M5709 1853 c-29 -78 -94 -217 -134 -287 -49 -85 -51 -92 -32 -93 6
-1 41 -8 77 -17 36 -9 76 -19 90 -22 14 -3 41 -9 60 -14 19 -5 46 -11 60 -14
14 -2 95 -18 180 -35 85 -17 173 -33 195 -36 22 -3 66 -10 97 -16 119 -20 213
25 258 123 36 79 19 175 -42 241 -32 34 -99 63 -163 71 -27 4 -57 9 -65 11 -8
2 -31 6 -50 9 -65 10 -251 45 -288 55 -20 5 -50 12 -67 14 -16 3 -48 9 -70 15
-97 24 -95 25 -106 -5z"/>
</g>
</svg>
